<?xml version="1.0" encoding="UTF-8"?>
<svg version="1.1" xmlns="http://www.w3.org/2000/svg" width="512" height="512">
<path d="M0 0 C1.36344334 -0.00346793 2.72688387 -0.00824002 4.09031868 -0.01418173 C7.79006702 -0.02656582 11.48957963 -0.02057973 15.18932819 -0.01122308 C19.19758415 -0.00438055 23.20580211 -0.01493936 27.21405029 -0.02316284 C35.04770911 -0.03644734 42.88128131 -0.03364613 50.71494341 -0.02492492 C57.08603147 -0.01812787 63.45709539 -0.01724036 69.82818604 -0.02049637 C71.19244506 -0.02118592 71.19244506 -0.02118592 72.58426487 -0.0218894 C74.4323659 -0.02284865 76.28046692 -0.02382129 78.12856793 -0.02480717 C95.42601653 -0.03334559 112.7234173 -0.0235513 130.02085805 -0.00740607 C144.83733425 0.0059957 159.65373992 0.00366717 174.47021484 -0.01016235 C191.70912015 -0.02624559 208.94798361 -0.03252176 226.18689537 -0.02332556 C228.02789687 -0.02236999 229.86889839 -0.02142688 231.7098999 -0.02049637 C232.61552079 -0.02003354 233.52114168 -0.01957072 234.45420563 -0.01909386 C240.81178621 -0.0165122 247.16934007 -0.02085714 253.5269165 -0.02793503 C261.2830619 -0.03638078 269.0391163 -0.03400559 276.79525137 -0.0180928 C280.74653469 -0.01025124 284.69766674 -0.00704747 288.64894867 -0.01704025 C292.27606908 -0.02607396 295.90290005 -0.02091411 299.52999473 -0.0051076 C301.44187262 -0.00024472 303.35377112 -0.00987804 305.26562691 -0.02027929 C333.07795717 0.16566716 357.15248179 12.22569324 377.33154297 30.88485718 C397.06215816 51.089766 407.30279211 77.52603036 407.1499939 105.61190796 C407.15346183 106.9753513 407.15823392 108.33879183 407.16417563 109.70222664 C407.17655971 113.40197498 407.17057363 117.10148759 407.16121697 120.80123615 C407.15437445 124.80949211 407.16493326 128.81771007 407.17315674 132.82595825 C407.18644124 140.65961707 407.18364002 148.49318927 407.17491882 156.32685137 C407.16812176 162.69793943 407.16723426 169.06900334 407.17049026 175.44009399 C407.17094996 176.34960001 407.17140966 177.25910603 407.17188329 178.19617283 C407.17284255 180.04427386 407.17381519 181.89237488 407.17480107 183.74047589 C407.18333948 201.03792449 407.17354519 218.33532526 407.15739997 235.63276601 C407.1439982 250.44924221 407.14632673 265.26564787 407.16015625 280.0821228 C407.17623949 297.32102811 407.18251565 314.55989157 407.17331946 331.79880333 C407.17236389 333.63980483 407.17142078 335.48080634 407.17049026 337.32180786 C407.17002744 338.22742875 407.16956461 339.13304964 407.16908776 340.06611359 C407.16650609 346.42369417 407.17085104 352.78124803 407.17792892 359.13882446 C407.18637468 366.89496985 407.18399949 374.65102425 407.16808669 382.40715933 C407.16024514 386.35844265 407.15704137 390.3095747 407.16703415 394.26085663 C407.17606785 397.88797704 407.170908 401.514808 407.15510149 405.14190269 C407.15023862 407.05378058 407.15987194 408.96567908 407.17027318 410.87753487 C406.98432674 438.68986513 394.92430066 462.76438975 376.26513672 482.94345093 C356.0602279 502.67406612 329.62396354 512.91470007 301.53808594 512.76190186 C300.17464259 512.76536978 298.81120207 512.77014188 297.44776726 512.77608359 C293.74801892 512.78846767 290.04850631 512.78248158 286.34875774 512.77312493 C282.34050178 512.76628241 278.33228382 512.77684121 274.32403564 512.7850647 C266.49037683 512.79834919 258.65680463 512.79554798 250.82314253 512.78682677 C244.45205447 512.78002972 238.08099055 512.77914221 231.7098999 512.78239822 C230.34564088 512.78308777 230.34564088 512.78308777 228.95382106 512.78379125 C227.10572004 512.7847505 225.25761902 512.78572315 223.409518 512.78670903 C206.11206941 512.79524744 188.81466864 512.78545315 171.51722789 512.76930793 C156.70075169 512.75590616 141.88434602 512.75823469 127.06787109 512.77206421 C109.82896579 512.78814745 92.59010233 512.79442361 75.35119057 512.78522742 C73.51018906 512.78427185 71.66918755 512.78332874 69.82818604 512.78239822 C68.92256514 512.7819354 68.01694425 512.78147257 67.08388031 512.78099572 C60.72629973 512.77841405 54.36874587 512.782759 48.01116943 512.78983688 C40.25502404 512.79828264 32.49896964 512.79590745 24.74283457 512.77999465 C20.79155125 512.7721531 16.8404192 512.76894933 12.88913727 512.77894211 C9.26201686 512.78797581 5.63518589 512.78281596 2.00809121 512.76700945 C0.09621331 512.76214657 -1.81568518 512.7717799 -3.72754097 512.78218114 C-31.53987123 512.5962347 -55.61439585 500.53620862 -75.79345703 481.87704468 C-95.52407222 461.67213585 -105.76470617 435.2358715 -105.61190796 407.1499939 C-105.61537589 405.78655055 -105.62014798 404.42311002 -105.62608969 403.05967522 C-105.63847378 399.35992687 -105.63248769 395.66041427 -105.62313104 391.9606657 C-105.61628851 387.95240974 -105.62684732 383.94419178 -105.6350708 379.9359436 C-105.6483553 372.10228479 -105.64555409 364.26871259 -105.63683288 356.43505049 C-105.63003583 350.06396243 -105.62914832 343.69289851 -105.63240433 337.32180786 C-105.63286403 336.41230184 -105.63332373 335.50279583 -105.63379735 334.56572902 C-105.63475661 332.717628 -105.63572925 330.86952698 -105.63671513 329.02142596 C-105.64525354 311.72397736 -105.63545925 294.4265766 -105.61931403 277.12913585 C-105.60591226 262.31265965 -105.60824079 247.49625398 -105.62207031 232.67977905 C-105.63815355 215.44087375 -105.64442972 198.20201028 -105.63523352 180.96309853 C-105.63427795 179.12209702 -105.63333484 177.28109551 -105.63240433 175.44009399 C-105.6319415 174.5344731 -105.63147867 173.62885221 -105.63100182 172.69578826 C-105.62842016 166.33820769 -105.6327651 159.98065383 -105.63984299 153.62307739 C-105.64828874 145.866932 -105.64591355 138.1108776 -105.63000076 130.35474253 C-105.6221592 126.40345921 -105.61895543 122.45232716 -105.62894821 118.50104523 C-105.63798192 114.87392481 -105.63282207 111.24709385 -105.61701556 107.61999917 C-105.61215268 105.70812127 -105.621786 103.79622278 -105.63218725 101.88436699 C-105.4462408 74.07203673 -93.38621472 49.99751211 -74.72705078 29.81845093 C-54.52214196 10.08783574 -28.0858776 -0.15279822 0 0 Z M3.76904297 146.38095093 C2.79966797 147.15567749 1.83029297 147.93040405 0.83154297 148.72860718 C-11.94906716 159.40179757 -21.50031597 177.89785499 -23.23095703 194.38095093 C-24.83401874 219.21242243 -19.71957447 241.13883156 -3.23095703 260.38095093 C3.60349275 267.39859215 12.62527733 274.80188985 21.76904297 278.38095093 C25.57655232 277.44849966 27.60668034 274.53221085 30.08154297 271.63095093 C38.4232887 262.12300719 38.4232887 262.12300719 43.84716797 259.29891968 C46.96070285 256.19171312 47.03412243 252.36246167 47.70654297 248.13095093 C51.28308847 228.45025573 58.30689082 210.46694244 71.76904297 195.38095093 C72.76291016 194.17438843 72.76291016 194.17438843 73.77685547 192.94345093 C86.40414774 178.03299511 102.9183514 168.79695062 120.76904297 161.38095093 C109.9903854 144.13509882 91.77349299 132.67861703 72.08154297 128.00595093 C47.32822098 123.80885587 22.7522304 129.81718935 3.76904297 146.38095093 Z M103.76904297 206.38095093 C102.79966797 207.15567749 101.83029297 207.93040405 100.83154297 208.72860718 C88.10616864 219.35566971 78.40377837 237.93452201 76.76904297 254.38095093 C76.47371525 262.38042149 76.57829145 270.38014741 76.76904297 278.38095093 C76.17881348 278.49414673 75.58858398 278.60734253 74.98046875 278.72396851 C63.86224569 280.99778929 55.1785429 286.77570001 48.85498047 296.24813843 C41.63181204 308.16785258 39.45432597 320.47106879 42.64404297 334.12704468 C45.16379091 341.16410389 48.66537652 346.93561643 53.76904297 352.38095093 C54.36458984 353.0177478 54.96013672 353.65454468 55.57373047 354.31063843 C68.26164573 366.57737808 85.9255101 366.68590426 102.4987793 366.63973999 C104.15106866 366.64245595 105.80335681 366.64602025 107.4556427 366.65036011 C111.91037328 366.65941664 116.36501039 366.65596729 120.81974244 366.64960194 C125.50521214 366.64450428 130.19067436 366.64924402 134.87614441 366.65237427 C142.74483664 366.65600408 150.61349123 366.65124186 158.48217773 366.64169312 C167.54462643 366.63082185 176.60698501 366.63432849 185.66943151 366.64534593 C193.48301451 366.65446055 201.29657059 366.65568343 209.11015719 366.65046859 C213.76230924 366.64737028 218.41441913 366.64687984 223.06656837 366.65354156 C227.44565548 366.65937507 231.82462802 366.65520989 236.20370293 366.64375305 C237.79867997 366.64113775 239.39366688 366.641817 240.98863983 366.64627838 C263.4597316 366.70327405 281.79874598 363.51601079 298.95654297 347.69345093 C310.79271473 335.22536855 315.41688079 320.658053 315.2421875 303.78744507 C314.64577492 286.91864053 307.66510422 274.11892498 295.76904297 262.38095093 C283.84455259 251.62798943 270.89736648 247.15202826 255.01904297 247.06845093 C253.66975708 247.0601123 253.66975708 247.0601123 252.29321289 247.05160522 C247.04249036 247.1085566 242.76328681 247.80613283 237.76904297 249.38095093 C236.44904297 249.38095093 235.12904297 249.38095093 233.76904297 249.38095093 C233.48931641 248.44895874 233.20958984 247.51696655 232.92138672 246.55673218 C226.28279499 225.13553038 214.16088405 207.17729435 194.13623047 196.34970093 C164.38060128 181.20799132 129.19801123 184.1929296 103.76904297 206.38095093 Z " fill="#000000" transform="translate(105.23095703125,-0.380950927734375)"/>
</svg>
